HIERARCHY
ROOT Hips
{
	OFFSET 0.00000 0.00000 0.00000
	CHANNELS 6 Xposition Yposition Zposition Yrotation Zrotation Xrotation 
	JOINT Lumbar
	{
		OFFSET 0 0 0
		CHANNELS 3 Zrotation Xrotation Yrotation
		JOINT Neck
		{
			OFFSET 0.00 0.2701 0.00
			CHANNELS 3 Zrotation Xrotation Yrotation
			End Site
			{
				OFFSET 0.00 0.1379 0.00
			}
		}
		JOINT RightShoulder
		{
			OFFSET 0.0119 0.2289 0.1181
			CHANNELS 3 Zrotation Xrotation Yrotation
			JOINT RightElbow
			{
				OFFSET 0.00 -0.1475 0.00
				CHANNELS 2 Zrotation Yrotation
				JOINT RightWrist
				{
					OFFSET 0.00 -0.1605 0.00
					CHANNELS 2 Zrotation Xrotation
					End Site
					{
						OFFSET 0.0040 -0.1068 0.0006
					}
				}
			}
		}
		JOINT LeftShoulder
		{
			OFFSET 0.0119 0.2289 -0.1181
			CHANNELS 3 Zrotation Xrotation Yrotation
			JOINT LeftElbow
			{
				OFFSET 0.00 -0.1475 0.00
				CHANNELS 2 Zrotation Yrotation
				JOINT LeftWrist
				{
					OFFSET 0.00 -0.1605 0.00
					CHANNELS 2 Zrotation Xrotation
					End Site
					{
						OFFSET 0.0040 -0.1068 -0.0006
					}
				}
			}
		}
	}
	JOINT RightHip
	{
		OFFSET 0.0316 -0.0424 0.0458
		CHANNELS 3 Zrotation Xrotation Yrotation
		JOINT RightKnee
		{
			OFFSET 0.00 -0.2438 0.00
			CHANNELS 1 Zrotation
			JOINT RightAnkle
			{
				OFFSET 0.00 -0.2449 0.00
				CHANNELS 3 Zrotation Xrotation Yrotation
				End Site
				{
					OFFSET 0.1237 -0.0542 0.0051
				}
			}
		}
	}
	JOINT LeftHip
	{
		OFFSET 0.0316 -0.0424 -0.0458
		CHANNELS 3 Zrotation Xrotation Yrotation
		JOINT LeftKnee
		{
			OFFSET 0.00 -0.2438 0.00
			CHANNELS 1 Zrotation
			JOINT LeftAnkle
			{
				OFFSET 0.00 -0.2449 0.00
				CHANNELS 3 Zrotation Xrotation Yrotation
				End Site
				{
					OFFSET 0.1237 -0.0542 -0.0051
				}
			}
		}
	}
}
MOTION
Frames: 20
Frame Time: 0.02
0.02005 0.57903 0.02094 184.19786 0 -3.38648 -4.67346 -2.98836 2.53075 -23.08347 14.34369 16.33906 69.01315 -35.85104 59.8826 77.77334 85.99269 12.12858 -2.61729 25.62291 13.51329 -27.62336 106.55383 -96.34842 -35.36981 5.33126 -2.68542 1.22793 -4.23419 -5.37566 -4.17611 -3.33236 -6.05288 0.18774 3.14858 1.079 -7.36555 3.55495 2.48195 0.67923
0.02029 0.57906 0.02088 184.26444 0 -3.38055 -4.76144 -2.989 2.40589 -22.99777 14.38354 16.29178 71.76983 -35.48461 59.67731 74.16077 84.67549 10.05473 -3.23722 25.7443 13.26902 -28.79391 106.17959 -96.47127 -35.12641 5.34679 -2.74429 1.23562 -4.31173 -5.23569 -4.24472 -3.32112 -6.05573 0.22052 3.14478 1.00119 -7.35689 3.52954 2.4868 0.68264
0.02047 0.57907 0.02087 184.49605 0 -3.36433 -4.83441 -3.00491 2.28781 -22.86877 14.38262 16.20622 74.46477 -35.68305 59.38525 69.76124 83.93007 8.22048 -3.89936 26.02437 13.05384 -30.07925 105.83087 -96.63013 -34.88283 5.3637 -2.84985 1.24224 -4.48691 -5.0853 -4.29065 -3.31656 -6.11819 0.28248 3.1258 0.7311 -7.36822 3.50029 2.49632 0.70306
0.02066 0.57909 0.02083 184.6609 0 -3.35238 -4.9107 -3.01412 2.17032 -22.76156 14.39841 16.13711 77.14014 -35.65199 59.12507 65.71955 82.96223 6.32279 -4.48659 26.23782 12.82388 -31.3096 105.46782 -96.76623 -34.63268 5.37932 -2.93563 1.24959 -4.62424 -4.94294 -4.3431 -3.30985 -6.1544 0.3311 3.11363 0.5442 -7.37062 3.47207 2.50213 0.71244
0.02092 0.57912 0.0208 184.79482 0 -3.34193 -5.00266 -3.0216 2.03449 -22.64395 14.42215 16.06919 80.05328 -35.50059 58.89248 61.61624 81.81711 4.20731 -5.30564 26.42915 12.6004 -32.54973 105.1177 -96.92792 -34.41015 5.39722 -3.01697 1.25595 -4.73802 -4.78418 -4.41258 -3.29942 -6.18711 0.38061 3.10152 0.37409 -7.37152 3.44553 2.51372 0.73314
0.02102 0.57912 0.02077 185.03037 0 -3.32603 -5.05809 -3.0367 1.93938 -22.53833 14.41975 15.99099 82.43336 -35.73817 58.58486 57.49007 81.19906 2.61721 -5.65576 26.70202 12.37071 -33.79557 104.74745 -97.04657 -34.1305 5.41119 -3.11794 1.26417 -4.92211 -4.65819 -4.44073 -3.29834 -6.24133 0.43489 3.08585 0.1238 -7.38081 3.41544 2.51491 0.73561
0.02071 0.57907 0.02072 185.51197 0 -3.29718 -5.01631 -3.06767 1.95691 -22.47633 14.35276 15.89093 83.46708 -36.88517 58.07474 53.34499 81.70857 2.35989 -4.67051 27.18347 12.11297 -35.05286 104.29985 -97.0228 -33.69 5.41034 -3.26247 1.27707 -5.28137 -4.62379 -4.36124 -3.32101 -6.33945 0.49623 3.06349 -0.30177 -7.40612 3.37221 2.48394 0.67995
0.02024 0.57899 0.02068 186.08831 0 -3.26331 -4.93819 -3.1061 2.01508 -22.42841 14.2613 15.78267 83.94174 -38.40853 57.49605 49.24114 82.75849 2.63718 -3.21886 27.73736 11.84889 -36.30741 103.83368 -96.95693 -33.19285 5.40611 -3.42469 1.292 -5.70637 -4.62336 -4.2407 -3.35291 -6.45728 0.56104 3.03823 -0.80075 -7.43964 3.32648 2.44283 0.60631
0.01983 0.57892 0.02063 186.61732 0 -3.23203 -4.87658 -3.14222 2.05407 -22.37392 14.1825 15.68049 84.59655 -39.77865 56.95943 45.21889 83.69193 2.71133 -1.99896 28.24378 11.58987 -37.54919 103.38567 -96.92045 -32.72344 5.40595 -3.57816 1.30646 -6.09789 -4.60862 -4.13815 -3.38088 -6.56678 0.62358 3.01467 -1.26581 -7.47105 3.28485 2.408 0.54369
0.01946 0.57885 0.02059 187.17128 0 -3.19908 -4.81441 -3.1745 2.09699 -22.31738 14.09565 15.56731 85.56315 -41.09736 56.37179 40.73349 84.12381 2.62473 -0.69174 28.81762 11.32166 -38.85703 102.89725 -96.84322 -32.24467 5.3955 -3.7366 1.31896 -6.50913 -4.58863 -4.03741 -3.40808 -6.67596 0.69031 2.98886 -1.74137 -7.49656 3.23058 2.36639 0.46984
0.01898 0.57878 0.02053 187.69222 0 -3.16858 -4.74504 -3.21611 2.14038 -22.27055 14.02047 15.4752 85.74651 -42.60002 55.87762 37.24707 85.69163 2.99769 0.53836 29.26556 11.07197 -40.02144 102.48866 -96.83876 -31.77312 5.40521 -3.88787 1.33603 -6.89234 -4.58789 -3.92373 -3.43886 -6.7894 0.74846 2.9674 -2.20822 -7.53571 3.20206 2.33628 0.41457
0.01824 0.57869 0.02042 188.10934 0 -3.14566 -4.66408 -3.28387 2.18289 -22.23433 13.98223 15.44738 83.91947 -44.55919 55.63877 36.39593 90.51572 4.4998 1.49826 29.35285 10.86375 -40.82154 102.30119 -97.05956 -31.32576 5.47542 -4.01824 1.36541 -7.19217 -4.63124 -3.78222 -3.47819 -6.91186 0.78437 2.95744 -2.64701 -7.61349 3.24571 2.34196 0.41801
0.01742 0.57859 0.02029 188.48678 0 -3.12551 -4.57733 -3.36029 2.22293 -22.21 13.9571 15.44085 81.32237 -46.67912 55.5003 36.57429 96.41409 6.44497 2.35454 29.30938 10.67616 -41.4711 102.19516 -97.35233 -30.88971 5.56529 -4.13988 1.39927 -7.45895 -4.69292 -3.62973 -3.52057 -7.03709 0.81091 2.95226 -3.07073 -7.70404 3.31529 2.35934 0.4403
0.01664 0.5785 0.02017 188.87512 0 -3.10437 -4.49368 -3.43125 2.25906 -22.18881 13.9269 15.4216 79.06584 -48.69715 55.32935 36.35919 101.65312 8.19403 3.22054 29.3217 10.48654 -42.16854 102.05442 -97.60272 -30.45442 5.64351 -4.26325 1.43096 -7.73396 -4.74684 -3.48367 -3.56094 -7.15959 0.84016 2.94575 -3.49153 -7.78669 3.37277 2.37027 0.4517
0.01583 0.5784 0.02006 189.29852 0 -3.08183 -4.40669 -3.50895 2.31814 -22.132 13.89174 15.41338 76.82301 -50.85431 55.10112 35.8295 107.63541 9.94608 4.2585 29.35148 10.26641 -42.95234 101.90389 -97.89225 -29.9911 5.73303 -4.39697 1.46335 -8.04075 -4.79982 -3.32969 -3.6044 -7.28964 0.8763 2.93558 -3.95714 -7.87855 3.43157 2.38537 0.47158
0.01506 0.57831 0.01992 189.63629 0 -3.06304 -4.32587 -3.57451 2.32793 -22.15206 13.87075 15.38926 74.38411 -52.75 55.0161 36.20086 112.31567 11.78219 4.91018 29.31355 10.11392 -43.52092 101.79263 -98.11822 -29.59102 5.8038 -4.5065 1.49522 -8.2717 -4.8583 -3.19062 -3.64189 -7.4036 0.89555 2.93422 -4.32375 -7.95407 3.49372 2.39501 0.47939
0.01443 0.57823 0.0197 189.76301 0 -3.05289 -4.26279 -3.60498 2.20555 -22.38072 13.88236 15.29955 71.52751 -53.9224 55.30998 38.79391 113.14961 13.80588 4.49604 29.11416 10.15087 -43.52829 101.77622 -98.14816 -29.35058 5.8174 -4.55396 1.52541 -8.30859 -4.93047 -3.09149 -3.66311 -7.47885 0.87252 2.95586 -4.42912 -7.98204 3.55952 2.3841 0.44145
0.01386 0.57815 0.01946 189.80146 0 -3.04663 -4.20651 -3.62278 2.03311 -22.6861 13.90847 15.19598 68.51642 -54.8164 55.74339 42.25952 112.63117 15.88333 3.69902 28.85198 10.25385 -43.32505 101.79556 -98.1123 -29.17582 5.81156 -4.57675 1.55476 -8.26853 -5.00681 -3.0087 -3.67797 -7.53653 0.83241 2.98626 -4.43321 -7.9929 3.62764 2.3678 0.39209
0.01326 0.57807 0.01922 189.86957 0 -3.03927 -4.14765 -3.64597 1.88084 -22.95717 13.93027 15.10997 65.61965 -55.81177 56.10806 45.33673 112.72119 17.89269 3.09097 28.62243 10.32148 -43.22055 101.79434 -98.1088 -28.97949 5.81503 -4.60911 1.58395 -8.25869 -5.0791 -2.92116 -3.69508 -7.5979 0.79873 3.01275 -4.47799 -8.01114 3.69424 2.3558 0.35333
0.01264 0.57798 0.01898 189.98063 0 -3.02915 -4.08607 -3.67103 1.73824 -23.2276 13.94303 14.97825 62.50394 -56.92188 56.49872 48.42086 112.87472 20.10587 2.41625 28.37106 10.41204 -43.09758 101.81367 -98.09781 -28.74916 5.81723 -4.64831 1.61561 -8.2681 -5.16112 -2.82181 -3.71506 -7.67741 0.7703 3.03908 -4.54564 -8.0317 3.76378 2.33657 0.29299
